<svg xmlns="http://www.w3.org/2000/svg" viewBox="0 0 24 24" width="24" height="24">
  <path fill="#FF9900" d="M6.763 4.29a1.724 1.724 0 0 0-1.045.328c-.32.22-.48.53-.48.93 0 .4.16.71.48.93.32.22.7.33 1.14.33.44 0 .82-.11 1.14-.33.32-.22.48-.53.48-.93 0-.4-.16-.71-.48-.93a1.724 1.724 0 0 0-1.14-.328zm10.474 0a1.724 1.724 0 0 0-1.045.328c-.32.22-.48.53-.48.93 0 .4.16.71.48.93.32.22.7.33 1.14.33.44 0 .82-.11 1.14-.33.32-.22.48-.53.48-.93 0-.4-.16-.71-.48-.93a1.724 1.724 0 0 0-1.14-.328zM12 4.29a1.724 1.724 0 0 0-1.045.328c-.32.22-.48.53-.48.93 0 .4.16.71.48.93.32.22.7.33 1.14.33.44 0 .82-.11 1.14-.33.32-.22.48-.53.48-.93 0-.4-.16-.71-.48-.93A1.724 1.724 0 0 0 12 4.29z"/>
</svg> 